<svg width="348" height="252" viewBox="0 0 348 252" fill="none" xmlns="http://www.w3.org/2000/svg">
<rect width="348" height="252" fill="#2C394B"/>
<path d="M43.6152 107.453H48.1807L59.8262 136.433L71.4473 107.453H76.0371L61.584 143H58.0195L43.6152 107.453ZM42.126 107.453H46.1543L46.8135 129.133V143H42.126V107.453ZM73.4736 107.453H77.502V143H72.8145V129.133L73.4736 107.453ZM83.8984 130.085V129.523C83.8984 127.619 84.1751 125.853 84.7285 124.226C85.2819 122.582 86.0794 121.158 87.1211 119.953C88.1628 118.732 89.4242 117.788 90.9053 117.121C92.3864 116.438 94.0465 116.096 95.8857 116.096C97.7412 116.096 99.4095 116.438 100.891 117.121C102.388 117.788 103.658 118.732 104.699 119.953C105.757 121.158 106.563 122.582 107.116 124.226C107.67 125.853 107.946 127.619 107.946 129.523V130.085C107.946 131.989 107.67 133.755 107.116 135.383C106.563 137.01 105.757 138.435 104.699 139.655C103.658 140.86 102.396 141.804 100.915 142.487C99.4502 143.155 97.79 143.488 95.9346 143.488C94.0791 143.488 92.4108 143.155 90.9297 142.487C89.4486 141.804 88.179 140.86 87.1211 139.655C86.0794 138.435 85.2819 137.01 84.7285 135.383C84.1751 133.755 83.8984 131.989 83.8984 130.085ZM88.415 129.523V130.085C88.415 131.403 88.5697 132.648 88.8789 133.82C89.1882 134.976 89.652 136.001 90.2705 136.896C90.9053 137.792 91.6947 138.5 92.6387 139.021C93.5827 139.525 94.6813 139.777 95.9346 139.777C97.1715 139.777 98.2539 139.525 99.1816 139.021C100.126 138.5 100.907 137.792 101.525 136.896C102.144 136.001 102.608 134.976 102.917 133.82C103.243 132.648 103.405 131.403 103.405 130.085V129.523C103.405 128.221 103.243 126.993 102.917 125.837C102.608 124.665 102.136 123.632 101.501 122.736C100.882 121.825 100.101 121.109 99.1572 120.588C98.2295 120.067 97.139 119.807 95.8857 119.807C94.6488 119.807 93.5583 120.067 92.6143 120.588C91.6865 121.109 90.9053 121.825 90.2705 122.736C89.652 123.632 89.1882 124.665 88.8789 125.837C88.5697 126.993 88.415 128.221 88.415 129.523ZM121.252 138.923L128.479 116.584H133.093L123.596 143H120.568L121.252 138.923ZM115.222 116.584L122.668 139.045L123.181 143H120.153L110.583 116.584H115.222ZM173.205 143.488C171.366 143.488 169.698 143.179 168.2 142.561C166.719 141.926 165.441 141.039 164.367 139.899C163.309 138.76 162.495 137.409 161.926 135.847C161.356 134.284 161.071 132.575 161.071 130.72V129.694C161.071 127.546 161.389 125.633 162.023 123.957C162.658 122.264 163.521 120.832 164.611 119.66C165.702 118.488 166.939 117.601 168.322 116.999C169.706 116.397 171.138 116.096 172.619 116.096C174.507 116.096 176.135 116.421 177.502 117.072C178.885 117.723 180.017 118.635 180.896 119.807C181.774 120.962 182.425 122.329 182.849 123.908C183.272 125.471 183.483 127.18 183.483 129.035V131.062H163.757V127.375H178.967V127.033C178.902 125.861 178.658 124.722 178.234 123.615C177.827 122.508 177.176 121.597 176.281 120.881C175.386 120.165 174.165 119.807 172.619 119.807C171.594 119.807 170.65 120.026 169.787 120.466C168.924 120.889 168.184 121.524 167.565 122.37C166.947 123.216 166.467 124.25 166.125 125.471C165.783 126.691 165.612 128.099 165.612 129.694V130.72C165.612 131.973 165.783 133.153 166.125 134.26C166.483 135.35 166.996 136.311 167.663 137.141C168.347 137.971 169.169 138.622 170.129 139.094C171.105 139.566 172.212 139.802 173.449 139.802C175.044 139.802 176.395 139.476 177.502 138.825C178.609 138.174 179.577 137.303 180.407 136.213L183.142 138.386C182.572 139.248 181.848 140.07 180.969 140.852C180.09 141.633 179.007 142.268 177.722 142.756C176.452 143.244 174.947 143.488 173.205 143.488ZM214.953 129.06H205.456V125.227H214.953C216.792 125.227 218.282 124.934 219.421 124.348C220.56 123.762 221.39 122.948 221.911 121.906C222.448 120.865 222.717 119.676 222.717 118.342C222.717 117.121 222.448 115.974 221.911 114.899C221.39 113.825 220.56 112.963 219.421 112.312C218.282 111.644 216.792 111.311 214.953 111.311H206.555V143H201.843V107.453H214.953C217.639 107.453 219.909 107.917 221.765 108.845C223.62 109.772 225.028 111.058 225.988 112.702C226.949 114.33 227.429 116.193 227.429 118.293C227.429 120.572 226.949 122.517 225.988 124.128C225.028 125.739 223.62 126.968 221.765 127.814C219.909 128.645 217.639 129.06 214.953 129.06ZM247.985 138.483V124.885C247.985 123.843 247.774 122.94 247.351 122.175C246.944 121.394 246.325 120.791 245.495 120.368C244.665 119.945 243.64 119.733 242.419 119.733C241.28 119.733 240.279 119.929 239.416 120.319C238.57 120.71 237.902 121.223 237.414 121.857C236.942 122.492 236.706 123.176 236.706 123.908H232.189C232.189 122.964 232.434 122.028 232.922 121.101C233.41 120.173 234.11 119.335 235.021 118.586C235.949 117.821 237.056 117.219 238.342 116.779C239.644 116.324 241.092 116.096 242.688 116.096C244.608 116.096 246.301 116.421 247.766 117.072C249.247 117.723 250.402 118.708 251.232 120.026C252.079 121.328 252.502 122.964 252.502 124.934V137.238C252.502 138.117 252.575 139.053 252.722 140.046C252.884 141.039 253.12 141.893 253.43 142.609V143H248.718C248.49 142.479 248.311 141.787 248.181 140.925C248.05 140.046 247.985 139.232 247.985 138.483ZM248.767 126.984L248.815 130.158H244.25C242.964 130.158 241.817 130.264 240.808 130.476C239.799 130.671 238.952 130.972 238.269 131.379C237.585 131.786 237.064 132.299 236.706 132.917C236.348 133.519 236.169 134.227 236.169 135.041C236.169 135.871 236.356 136.628 236.73 137.312C237.105 137.995 237.666 138.54 238.415 138.947C239.18 139.338 240.116 139.533 241.223 139.533C242.606 139.533 243.827 139.24 244.885 138.654C245.943 138.068 246.781 137.352 247.399 136.506C248.034 135.66 248.376 134.838 248.425 134.04L250.354 136.213C250.24 136.896 249.93 137.653 249.426 138.483C248.921 139.313 248.246 140.111 247.399 140.876C246.569 141.625 245.576 142.251 244.421 142.756C243.282 143.244 241.996 143.488 240.563 143.488C238.773 143.488 237.202 143.138 235.852 142.438C234.517 141.739 233.475 140.803 232.727 139.631C231.994 138.443 231.628 137.116 231.628 135.651C231.628 134.235 231.905 132.99 232.458 131.916C233.011 130.826 233.809 129.922 234.851 129.206C235.892 128.474 237.146 127.92 238.61 127.546C240.075 127.172 241.711 126.984 243.518 126.984H248.767ZM276.721 116.584H280.822V142.438C280.822 144.766 280.35 146.752 279.406 148.396C278.462 150.039 277.144 151.285 275.451 152.131C273.775 152.993 271.838 153.425 269.641 153.425C268.729 153.425 267.655 153.278 266.418 152.985C265.197 152.709 263.993 152.229 262.805 151.545C261.633 150.878 260.648 149.974 259.851 148.835L262.219 146.149C263.326 147.484 264.481 148.412 265.686 148.933C266.906 149.453 268.111 149.714 269.299 149.714C270.731 149.714 271.968 149.445 273.01 148.908C274.051 148.371 274.857 147.574 275.427 146.516C276.013 145.474 276.306 144.188 276.306 142.658V122.395L276.721 116.584ZM258.532 130.085V129.572C258.532 127.554 258.768 125.723 259.24 124.079C259.729 122.419 260.42 120.995 261.315 119.807C262.227 118.618 263.326 117.707 264.611 117.072C265.897 116.421 267.346 116.096 268.957 116.096C270.617 116.096 272.066 116.389 273.303 116.975C274.556 117.544 275.614 118.382 276.477 119.489C277.355 120.58 278.047 121.898 278.552 123.444C279.056 124.991 279.406 126.74 279.602 128.693V130.939C279.423 132.876 279.073 134.618 278.552 136.164C278.047 137.71 277.355 139.029 276.477 140.119C275.614 141.21 274.556 142.048 273.303 142.634C272.049 143.203 270.585 143.488 268.908 143.488C267.329 143.488 265.897 143.155 264.611 142.487C263.342 141.82 262.251 140.884 261.34 139.68C260.428 138.475 259.729 137.059 259.24 135.432C258.768 133.788 258.532 132.006 258.532 130.085ZM263.049 129.572V130.085C263.049 131.403 263.179 132.64 263.439 133.796C263.716 134.951 264.131 135.969 264.685 136.848C265.254 137.727 265.979 138.418 266.857 138.923C267.736 139.411 268.786 139.655 270.007 139.655C271.504 139.655 272.741 139.338 273.718 138.703C274.694 138.068 275.467 137.23 276.037 136.188C276.623 135.147 277.079 134.016 277.404 132.795V126.911C277.225 126.016 276.949 125.153 276.574 124.323C276.216 123.477 275.744 122.728 275.158 122.077C274.589 121.41 273.881 120.881 273.034 120.49C272.188 120.1 271.195 119.904 270.056 119.904C268.819 119.904 267.753 120.165 266.857 120.686C265.979 121.19 265.254 121.89 264.685 122.785C264.131 123.664 263.716 124.689 263.439 125.861C263.179 127.017 263.049 128.254 263.049 129.572ZM298.645 143.488C296.805 143.488 295.137 143.179 293.64 142.561C292.159 141.926 290.881 141.039 289.807 139.899C288.749 138.76 287.935 137.409 287.365 135.847C286.796 134.284 286.511 132.575 286.511 130.72V129.694C286.511 127.546 286.828 125.633 287.463 123.957C288.098 122.264 288.96 120.832 290.051 119.66C291.141 118.488 292.378 117.601 293.762 116.999C295.145 116.397 296.577 116.096 298.059 116.096C299.947 116.096 301.574 116.421 302.941 117.072C304.325 117.723 305.456 118.635 306.335 119.807C307.214 120.962 307.865 122.329 308.288 123.908C308.711 125.471 308.923 127.18 308.923 129.035V131.062H289.196V127.375H304.406V127.033C304.341 125.861 304.097 124.722 303.674 123.615C303.267 122.508 302.616 121.597 301.721 120.881C300.826 120.165 299.605 119.807 298.059 119.807C297.033 119.807 296.089 120.026 295.227 120.466C294.364 120.889 293.623 121.524 293.005 122.37C292.386 123.216 291.906 124.25 291.564 125.471C291.223 126.691 291.052 128.099 291.052 129.694V130.72C291.052 131.973 291.223 133.153 291.564 134.26C291.923 135.35 292.435 136.311 293.103 137.141C293.786 137.971 294.608 138.622 295.568 139.094C296.545 139.566 297.652 139.802 298.889 139.802C300.484 139.802 301.835 139.476 302.941 138.825C304.048 138.174 305.017 137.303 305.847 136.213L308.581 138.386C308.011 139.248 307.287 140.07 306.408 140.852C305.529 141.633 304.447 142.268 303.161 142.756C301.892 143.244 300.386 143.488 298.645 143.488Z" fill="white"/>
<mask id="path-3-outside-1_1_9" maskUnits="userSpaceOnUse" x="258" y="27" width="64" height="55" fill="black">
<rect fill="white" x="258" y="27" width="64" height="55"/>
<path d="M258 32H317V82H258V32Z"/>
</mask>
<path d="M317 32H322V27H317V32ZM258 37H317V27H258V37ZM312 32V82H322V32H312Z" fill="#082032" mask="url(#path-3-outside-1_1_9)"/>
<mask id="path-5-outside-2_1_9" maskUnits="userSpaceOnUse" x="24" y="155" width="64" height="55" fill="black">
<rect fill="white" x="24" y="155" width="64" height="55"/>
<path d="M88 205H29L29 155H88V205Z"/>
</mask>
<path d="M29 205H24V210H29V205ZM88 200H29V210H88V200ZM34 205L34 155H24L24 205H34Z" fill="#082032" mask="url(#path-5-outside-2_1_9)"/>
<circle cx="147.5" cy="74.5" r="7.5" fill="#FF4C29"/>
<rect x="142" y="94" width="10" height="50" rx="5" fill="#FF4C29"/>
</svg>
